<svg width="282.06" height="69.066" xmlns="http://www.w3.org/2000/svg"><path d="M68.78 48.45H58.045V17.48a20.933 20.933 0 0 0-.133-2.439q-.272-2.315-1.102-3.878-1.235-2.328-4.275-2.328-1.805 0-3.657.998a10.259 10.259 0 0 0-2.289 1.698 12.998 12.998 0 0 0-1.084 1.199 14.402 14.402 0 0 0-1.677 2.672 18.197 18.197 0 0 0-.793 1.888 16.288 16.288 0 0 0-.848 3.832 20.195 20.195 0 0 0-.102 2.058v25.27H31.35V17.48a20.933 20.933 0 0 0-.133-2.439q-.272-2.315-1.102-3.878-1.235-2.328-4.275-2.328a6.96 6.96 0 0 0-2.823.615 8.801 8.801 0 0 0-.93.478 9.823 9.823 0 0 0-2.116 1.702 12.949 12.949 0 0 0-1.209 1.48 15.269 15.269 0 0 0-1.403 2.475 20.752 20.752 0 0 0-.972 2.608 20.836 20.836 0 0 0-.747 3.751 27.051 27.051 0 0 0-.155 2.946v23.56H4.655V24.51q0-4.248-.422-7.467a32.673 32.673 0 0 0-.338-2.08q-.511-2.585-1.064-4.506A27.914 27.914 0 0 0 2.28 8.74a26.524 26.524 0 0 0-.81-1.919q-.437-.923-.902-1.687A13.136 13.136 0 0 0 0 4.275L8.55.855a14.851 14.851 0 0 1 .891 1.084q.441.589.883 1.281a24.961 24.961 0 0 1 .126.2q.76 1.33 1.52 3.278a22.333 22.333 0 0 1 .746 2.286 29.499 29.499 0 0 1 .489 2.131 20.715 20.715 0 0 1 2.153-3.967 14.427 14.427 0 0 1 4.545-4.25Q24.225.38 29.07.38q3.739 0 6.205 1.471a8.31 8.31 0 0 1 1.347.999q2.708 2.47 4.038 6.365a18.716 18.716 0 0 1 2.476-3.582 13.937 13.937 0 0 1 4.127-3.21Q51.3.38 55.765.38a19.177 19.177 0 0 1 2.713.181q1.42.204 2.612.634a10.367 10.367 0 0 1 .898.373q2.517 1.187 3.99 3.325 1.472 2.137 2.137 5.13.665 2.992.665 6.697v31.73Zm93.48 16.625 2.66-8.265q1.425.57 3.04 1.188a59.078 59.078 0 0 0 2.529.899 67.622 67.622 0 0 0 .891.288q1.805.57 3.658.95 1.852.38 3.657.38 3.624 0 5.881-1.477a7.088 7.088 0 0 0 1.814-1.705q2.28-3.056 2.371-7.819a20.884 20.884 0 0 0 .004-.399 25.003 25.003 0 0 0-1.276-7.777 29.811 29.811 0 0 0-.814-2.198 17.346 17.346 0 0 1-1.692 3.674 12.896 12.896 0 0 1-3.39 3.689 12.411 12.411 0 0 1-4.168 1.926q-1.678.443-3.652.554a24.046 24.046 0 0 1-1.348.037 20.175 20.175 0 0 1-3.803-.341 14.843 14.843 0 0 1-3.939-1.321q-3.278-1.663-5.463-4.75-2.185-3.088-3.23-7.458a37.321 37.321 0 0 1-.845-5.217 48.217 48.217 0 0 1-.2-4.473 30.94 30.94 0 0 1 .716-6.759 26.84 26.84 0 0 1 .947-3.263 24.894 24.894 0 0 1 2.834-5.613 22 22 0 0 1 1.821-2.32q2.992-3.325 7.172-5.225a21.399 21.399 0 0 1 7.357-1.833A25.488 25.488 0 0 1 177.65.38a41.708 41.708 0 0 1 2.941.109 51.588 51.588 0 0 1 1.951.176q2.613.285 5.131.713a123.275 123.275 0 0 1 3.326.61 104.049 104.049 0 0 1 1.423.292q2.233.475 3.848.855l-.475 26.125q-.095 2.85.333 5.225.427 2.375.997 4.703.57 2.327 1.045 4.702a23.983 23.983 0 0 1 .384 2.822 30.661 30.661 0 0 1 .091 2.403q0 6.733-2.294 11.173a14.548 14.548 0 0 1-2.836 3.837q-5.13 4.94-13.87 4.94-2.85 0-5.7-.522a68.318 68.318 0 0 1-3.234-.671 55.109 55.109 0 0 1-2.038-.517q-2.423-.665-4.133-1.33-1.475-.574-2.102-.864a6.844 6.844 0 0 1-.178-.086ZM113.335 38l2.85 6.745a39.301 39.301 0 0 1-3.919 1.692 44.695 44.695 0 0 1-1.401.493 37.939 37.939 0 0 1-2.483.76q-1.501.407-3.217.76a32.865 32.865 0 0 1-5.279.633 37.883 37.883 0 0 1-1.561.032 30.584 30.584 0 0 1-4.21-.274q-2.252-.314-4.156-.985a17.258 17.258 0 0 1-1.039-.403q-3.895-1.663-6.365-4.703a18.331 18.331 0 0 1-2.864-5.008 22.596 22.596 0 0 1-.746-2.307 33.048 33.048 0 0 1-.922-5.11 42.575 42.575 0 0 1-.218-4.39 39.136 39.136 0 0 1 .38-5.589 28.32 28.32 0 0 1 1.378-5.621 25.626 25.626 0 0 1 2.32-4.83 20.911 20.911 0 0 1 2.524-3.292q3.088-3.278 7.268-4.94Q95.855 0 100.7 0a29.186 29.186 0 0 1 3.203.166q2.264.251 4.065.879a15.786 15.786 0 0 1 2.565 1.147 11.746 11.746 0 0 1 2.327 1.703q1.9 1.805 2.803 4.275a15.075 15.075 0 0 1 .88 4.439 17.462 17.462 0 0 1 .022.881 12.173 12.173 0 0 1-1.776 6.302 14.524 14.524 0 0 1-.124.206 16.022 16.022 0 0 1-3.117 3.644 20.816 20.816 0 0 1-2.346 1.771 26.175 26.175 0 0 1-4.2 2.205 35.742 35.742 0 0 1-4.397 1.5Q95.57 30.495 89.3 30.59q.285 2.185.903 4.133a10.716 10.716 0 0 0 1.214 2.604 9.717 9.717 0 0 0 .591.816 7.976 7.976 0 0 0 2.4 1.985 9.641 9.641 0 0 0 .687.342 8.89 8.89 0 0 0 1.844.585q.896.186 1.933.244a17.397 17.397 0 0 0 .973.026 20.93 20.93 0 0 0 2.653-.176 26.168 26.168 0 0 0 1.812-.299 39.72 39.72 0 0 0 2.686-.631 32.117 32.117 0 0 0 1.684-.509q2.375-.76 4.655-1.71Zm127.585 0 2.85 6.745a39.301 39.301 0 0 1-3.919 1.692 44.695 44.695 0 0 1-1.401.493 37.939 37.939 0 0 1-2.483.76q-1.501.407-3.217.76a32.865 32.865 0 0 1-5.279.633 37.883 37.883 0 0 1-1.561.032 30.584 30.584 0 0 1-4.21-.274q-2.252-.314-4.156-.985a17.258 17.258 0 0 1-1.039-.403q-3.895-1.663-6.365-4.703a18.331 18.331 0 0 1-2.864-5.008 22.596 22.596 0 0 1-.746-2.307 33.048 33.048 0 0 1-.922-5.11 42.575 42.575 0 0 1-.218-4.39 39.136 39.136 0 0 1 .38-5.589 28.32 28.32 0 0 1 1.378-5.621 25.626 25.626 0 0 1 2.32-4.83 20.911 20.911 0 0 1 2.524-3.292q3.088-3.278 7.268-4.94Q223.44 0 228.285 0a29.186 29.186 0 0 1 3.203.166q2.264.251 4.065.879a15.786 15.786 0 0 1 2.565 1.147 11.746 11.746 0 0 1 2.327 1.703q1.9 1.805 2.803 4.275a15.075 15.075 0 0 1 .88 4.439 17.462 17.462 0 0 1 .022.881 12.173 12.173 0 0 1-1.776 6.302 14.524 14.524 0 0 1-.124.206 16.022 16.022 0 0 1-3.117 3.644 20.816 20.816 0 0 1-2.346 1.771 26.175 26.175 0 0 1-4.2 2.205 35.742 35.742 0 0 1-4.397 1.5q-5.035 1.377-11.305 1.472.285 2.185.903 4.133a10.716 10.716 0 0 0 1.214 2.604 9.717 9.717 0 0 0 .591.816 7.976 7.976 0 0 0 2.4 1.985 9.641 9.641 0 0 0 .687.342 8.89 8.89 0 0 0 1.844.585q.896.186 1.933.244a17.397 17.397 0 0 0 .973.026 20.93 20.93 0 0 0 2.653-.176 26.168 26.168 0 0 0 1.812-.299 39.72 39.72 0 0 0 2.686-.631 32.117 32.117 0 0 0 1.684-.509q2.375-.76 4.655-1.71ZM137.275 22.42v26.03h-10.83V24.51q0-4.248-.422-7.467a32.673 32.673 0 0 0-.338-2.08q-.511-2.585-1.064-4.506a27.914 27.914 0 0 0-.551-1.717 26.524 26.524 0 0 0-.81-1.919q-.437-.923-.902-1.687a13.136 13.136 0 0 0-.568-.859l8.55-3.42q.855 1.045 1.805 2.565a23.952 23.952 0 0 1 .713 1.351q.302.619.605 1.313a39.794 39.794 0 0 1 .202.471 17.64 17.64 0 0 1 .65 1.838q.281.949.504 2.032a30.289 30.289 0 0 1 .081.405 21.092 21.092 0 0 1 1.508-3.423q1.059-1.893 2.427-3.227a11.173 11.173 0 0 1 1.575-1.282q3.61-2.423 8.17-2.423a16.17 16.17 0 0 1 2.807.236 13.92 13.92 0 0 1 1.278.287 254.054 254.054 0 0 1 .424.117q1.445.4 1.383.405a.023.023 0 0 1-.002 0l-3.04 10.545a.012.012 0 0 0 .006-.001q.031-.02-.828-.402a71.827 71.827 0 0 0-.27-.119 4.831 4.831 0 0 0-.859-.276q-.909-.209-2.222-.241a19.949 19.949 0 0 0-.482-.006 7.279 7.279 0 0 0-2.618.501 8.938 8.938 0 0 0-.802.354q-1.71.855-3.04 2.328a11.357 11.357 0 0 0-1.603 2.314 13.998 13.998 0 0 0-.582 1.248 11.47 11.47 0 0 0-.772 3.098 14.161 14.161 0 0 0-.083 1.557Zm127.585 0v26.03h-10.83V24.51q0-4.248-.422-7.467a32.673 32.673 0 0 0-.338-2.08q-.511-2.585-1.064-4.506a27.914 27.914 0 0 0-.551-1.717 26.524 26.524 0 0 0-.81-1.919q-.437-.923-.902-1.687a13.136 13.136 0 0 0-.568-.859l8.55-3.42q.855 1.045 1.805 2.565a23.952 23.952 0 0 1 .713 1.351q.302.619.605 1.313a39.794 39.794 0 0 1 .202.471 17.64 17.64 0 0 1 .65 1.838q.281.949.504 2.032a30.289 30.289 0 0 1 .081.405 21.092 21.092 0 0 1 1.508-3.423q1.059-1.893 2.427-3.227a11.173 11.173 0 0 1 1.575-1.282q3.61-2.423 8.17-2.423a16.17 16.17 0 0 1 2.807.236 13.92 13.92 0 0 1 1.278.287 254.054 254.054 0 0 1 .424.117q1.445.4 1.383.405a.023.023 0 0 1-.002 0l-3.04 10.545a.012.012 0 0 0 .006-.001q.031-.02-.828-.402a71.827 71.827 0 0 0-.27-.119 4.831 4.831 0 0 0-.859-.276q-.909-.209-2.222-.241a19.949 19.949 0 0 0-.482-.006 7.279 7.279 0 0 0-2.618.501 8.938 8.938 0 0 0-.802.354q-1.71.855-3.04 2.328a11.357 11.357 0 0 0-1.603 2.314 13.998 13.998 0 0 0-.582 1.248 11.47 11.47 0 0 0-.772 3.098 14.161 14.161 0 0 0-.083 1.557Zm-79.705 1.045V9.025a15.081 15.081 0 0 0-.534-.148q-.613-.159-1.478-.344a67.433 67.433 0 0 0-.838-.173 21.597 21.597 0 0 0-1.59-.26q-.975-.12-1.83-.12a17.359 17.359 0 0 0-2.478.167q-1.302.188-2.383.588a8.854 8.854 0 0 0-1.077.48q-2.327 1.235-3.752 3.42-1.425 2.185-1.995 5.225a32.891 32.891 0 0 0-.476 3.811 41.536 41.536 0 0 0-.094 2.839 105.573 105.573 0 0 0 .107 4.827 92.51 92.51 0 0 0 .083 1.538q.19 3.04.998 5.415.807 2.375 2.327 3.753a5.14 5.14 0 0 0 2.308 1.183q.79.188 1.717.194a9.483 9.483 0 0 0 .06 0 6.622 6.622 0 0 0 3.844-1.237 8.37 8.37 0 0 0 .383-.283q1.948-1.52 3.468-4.037a20.554 20.554 0 0 0 1.742-3.705 25.116 25.116 0 0 0 .633-2.043q.855-3.23.855-6.65ZM99.845 7.41a10.981 10.981 0 0 0-2.283.225q-1.65.35-2.894 1.248-2.043 1.472-3.278 3.8a16.994 16.994 0 0 0-1.407 3.64 20.343 20.343 0 0 0-.35 1.585q-.523 2.897-.618 5.842a40.732 40.732 0 0 0 3.226-.256q1.659-.202 3.085-.54a20.874 20.874 0 0 0 1.431-.391 22.961 22.961 0 0 0 2.369-.88q1.162-.511 2.105-1.109a12.126 12.126 0 0 0 .704-.481 12.249 12.249 0 0 0 1.441-1.236q.748-.757 1.242-1.569a7.135 7.135 0 0 0 .215-.378 8.019 8.019 0 0 0 .704-1.817 6.654 6.654 0 0 0 .198-1.603q0-2.755-1.615-4.417a5.399 5.399 0 0 0-3.218-1.592 7.573 7.573 0 0 0-1.057-.071Zm127.585 0a10.981 10.981 0 0 0-2.283.225q-1.65.35-2.894 1.248-2.043 1.472-3.278 3.8a16.994 16.994 0 0 0-1.407 3.64 20.343 20.343 0 0 0-.35 1.585q-.523 2.897-.618 5.842a40.732 40.732 0 0 0 3.226-.256q1.659-.202 3.085-.54a20.874 20.874 0 0 0 1.431-.391 22.961 22.961 0 0 0 2.369-.88q1.162-.511 2.105-1.109a12.126 12.126 0 0 0 .704-.481 12.249 12.249 0 0 0 1.441-1.236q.748-.757 1.242-1.569a7.135 7.135 0 0 0 .215-.378 8.019 8.019 0 0 0 .704-1.817 6.654 6.654 0 0 0 .198-1.603q0-2.755-1.615-4.417a5.399 5.399 0 0 0-3.218-1.592 7.573 7.573 0 0 0-1.057-.071Z" vector-effect="non-scaling-stroke" stroke-linecap="round" fill-rule="evenodd" font-size="12" stroke="#000" stroke-width=".945" style="stroke:#000;stroke-width:.25mm;fill:#000"/></svg>